<svg xmlns="http://www.w3.org/2000/svg" width="50" height="49.999" viewBox="0 0 50 49.999"><defs><style>.a{fill:#616789;fill-rule:evenodd;}</style></defs><g transform="translate(0.092 0.1)"><path class="a" d="M21.357,14.165a4.755,4.755,0,0,0,1.239.5,5.2,5.2,0,0,1-.262.941,4.565,4.565,0,0,0-.7-.8l-.151-.158-.977,1.038a3.414,3.414,0,0,0-.255-.255l-.036-.032Zm.061,1.35c.216.226.3.341.309.409a.176.176,0,0,1-.065.147,3.354,3.354,0,0,1-.32.3,1.282,1.282,0,0,1,.5.266,4.8,4.8,0,0,0,.424-.478.517.517,0,0,0,.129-.4.381.381,0,0,0-.029-.111,4.148,4.148,0,0,1,.65.036,5.747,5.747,0,0,0,.216-.941,1.437,1.437,0,0,0,1.078-.4c.359-.359.359-.661-.147-1.3a1.753,1.753,0,0,1-.621.19c.312.359.4.5.3.614a.718.718,0,0,1-.539.18,4.12,4.12,0,0,0-.223-1.307l-.585.359a3.186,3.186,0,0,1,.151.862,4.152,4.152,0,0,1-.779-.309l1.264-1.358-.453-.424-.535.567.04-.237a3.416,3.416,0,0,0-.84.129l-.122.557a2.762,2.762,0,0,1,.575-.079l-.46.5c-.169-.115-.327-.241-.488-.359l-.506.506a3.852,3.852,0,0,0,.488.359L19.27,15.458l.485.456a3.06,3.06,0,0,1,1.056,1.728,2.927,2.927,0,0,1,.736-.144,3.164,3.164,0,0,0-.668-1.437l.539-.571ZM22.5,17.189l.32-.359.564.567-.32.359-.582-.567Zm1.1-1.171.582.546-.327.359-.582-.546Zm.783-.833.582.546-.33.359-.582-.546Zm.075-.9L21.623,17.3l.988.93-.5.528.456.435,3.786-4.03-.467-.442-.463.492-.991-.93Zm8.3-5.689.323,1.1-.8.237-.323-1.1ZM34,10.117l-.514-1.735.772-.226-.2-.672-.772.216L32.9,6.41l-.718.216.384,1.3-.826.233-.391-1.354-.686.2.4,1.354-.794.233-.359-1.232-.718.216.359,1.232-.787.233.2.672.779-.226.923,3.057,4.346-1.286-.2-.672L31.177,11.65l-.718-2.4.794-.233.514,1.735,2.223-.657Zm11.321.28.2-.718-2.238-.614c.047-.151.093-.295.133-.438l.183-.6,2,.55.2-.718L41.122,6.575l-.2.718,1.918.528-.162.6c-.04.147-.086.291-.144.449l-2.112-.582-.2.718,1.968.542a3.318,3.318,0,0,1-2.715,1.386,2.791,2.791,0,0,1,.291.718,3.862,3.862,0,0,0,2.873-1.379A3.9,3.9,0,0,0,44.4,12.9a2.6,2.6,0,0,1,.632-.532,3.437,3.437,0,0,1-1.8-2.554l2.047.564Zm7.492,2.916a8.4,8.4,0,0,0,0-1.232l-.647-.136a8.676,8.676,0,0,1-.05,1.239l.718.133ZM51.52,14.1a7.008,7.008,0,0,0-.144-1.214l-.657-.057a6.878,6.878,0,0,1,.086,1.232l.718.04Zm-.718.172a19.373,19.373,0,0,1-2.112.557l.1.812c.661-.169,1.4-.388,2.058-.621l-.068-.747Zm1.462,2.493-.312.28,1.078,1.218-.453.431L51.5,17.473l-.632.571-.456-.506.636-.571L49.94,15.734l.474-.427L51.5,16.535l.312-.28-.844-.937.456-.435.844.937.359-.316.456.506-.359.316.815.905-.471.424-.815-.905Zm2.3-1.728a4.073,4.073,0,0,1-.844-.093,3.53,3.53,0,0,1,.022-.823Zm.891,0,.111.488a3.99,3.99,0,0,1-1.738.079,5.664,5.664,0,0,0,.654,1.53,2.572,2.572,0,0,0-.751.086,5.388,5.388,0,0,1-.6-1.8,7.183,7.183,0,0,1-1.652-.772,2.536,2.536,0,0,0,.19-.661,6.354,6.354,0,0,0,1.419.747,4.1,4.1,0,0,1,.18-1.16l-.244-.273.474-.427,1.875,2.087Z" transform="translate(-12.408 -4.172)"/><path class="a" d="M20.848,99.765l.316.359a.585.585,0,0,0-.187.359.528.528,0,0,0,.115.359.546.546,0,0,0,.287.233.3.3,0,0,0,.262-.04.226.226,0,0,0,.09-.126.4.4,0,0,0,0-.2,2.136,2.136,0,0,0-.14-.381,1.325,1.325,0,0,1-.126-.589.647.647,0,0,1,.614-.585.661.661,0,0,1,.377.1,1.21,1.21,0,0,1,.359.341,1.013,1.013,0,0,1,.233.679.718.718,0,0,1-.3.514l-.32-.409a.424.424,0,0,0,.144-.266.488.488,0,0,0-.111-.3A.553.553,0,0,0,22.2,99.6a.18.18,0,0,0-.169.025.187.187,0,0,0-.079.147,1.271,1.271,0,0,0,.129.463,2.353,2.353,0,0,1,.165.532.683.683,0,0,1-.047.359.762.762,0,0,1-.647.438.693.693,0,0,1-.413-.111,1.376,1.376,0,0,1-.381-.381,1.056,1.056,0,0,1-.237-.718.927.927,0,0,1,.334-.6Zm1.315,2.978.338.359.776-.718.647.686-.776.718.338.359,1.774-1.67-.338-.359-.7.657-.661-.686.718-.661-.338-.359-1.774,1.67Zm2.363,2.227,1.552-1.875,1.386,1.153-.262.316-1.009-.837-.359.417.963.776-.262.316-.937-.779-.42.506,1.045.866-.262.316-1.437-1.182Zm2.489,1.774.4.226.794-1.39.065,1.882.427.244,1.207-2.116-.4-.226-.808,1.419-.061-1.914-.406-.241-1.207,2.116Zm4.245,1.027.133-.388,1,.359-.316.9a1.325,1.325,0,0,1-.51.1,1.624,1.624,0,0,1-.6-.086,1.333,1.333,0,0,1-.578-.377,1.027,1.027,0,0,1-.251-.575,1.487,1.487,0,0,1,.079-.661,1.412,1.412,0,0,1,.359-.589,1.078,1.078,0,0,1,.589-.277,1.257,1.257,0,0,1,.589.075,1.164,1.164,0,0,1,.607.413.862.862,0,0,1,.136.607L32,107.2a.517.517,0,0,0-.09-.33.582.582,0,0,0-.3-.215.664.664,0,0,0-.55.025.866.866,0,0,0-.359.521.959.959,0,0,0-.032.679.643.643,0,0,0,.406.359.848.848,0,0,0,.312.043,1.042,1.042,0,0,0,.3-.054l.1-.291-.532-.183Zm2.658.862.481.032a.582.582,0,0,0,.115.377.528.528,0,0,0,.334.169.546.546,0,0,0,.359-.04.3.3,0,0,0,.158-.212.226.226,0,0,0-.025-.154.4.4,0,0,0-.158-.133c-.054-.029-.176-.086-.359-.169a1.325,1.325,0,0,1-.506-.33.647.647,0,0,1,.022-.848.661.661,0,0,1,.341-.194,1.21,1.21,0,0,1,.485,0,1.013,1.013,0,0,1,.647.312.718.718,0,0,1,.151.575l-.488-.065a.424.424,0,0,0-.086-.291.488.488,0,0,0-.291-.133.553.553,0,0,0-.359.032.18.18,0,0,0-.1.136.187.187,0,0,0,.047.158,1.271,1.271,0,0,0,.417.237,2.363,2.363,0,0,1,.492.259.682.682,0,0,1,.226.287.745.745,0,0,1-.147.758.7.7,0,0,1-.359.216,1.379,1.379,0,0,1-.539,0,1.056,1.056,0,0,1-.664-.327.923.923,0,0,1-.19-.661Zm3.035,1.185.032-2.435h.492v.959h.959v-.959h.492l-.032,2.435H38.4v-1.078h-.959v1.078Zm3.233-.061-.334-2.414.488-.068.334,2.414Zm3.013-.514-.456-1.972-.718.162-.093-.4,1.882-.435.093.4-.7.162.471,1.968-.481.111Zm2.205-.664-.869-2.277.46-.176.869,2.277ZM49,106.912l-.467.251-.449-.388-.862.463.083.585-.46.248-.316-2.593.46-.248L49,106.916Zm-1.271-.427-.718-.636.136.952.589-.316Zm2.155-.133.359-.266-.93-1.3,1.735.718.4-.287-1.412-1.961-.359.266.948,1.329L48.86,104.1l-.388.277,1.415,1.983Zm3-2.327-.323-.305-.269-2.019-.779.826-.3-.284,1.225-1.3.277.262.28,2.1.952-1.006.3.284-1.361,1.437Zm2.1-2.263,1.052-1.523-.338-.233-.772,1.117-.542-.359.693-1-.338-.233-.693,1-.445-.309.743-1.078L54,98.91l-1.038,1.469Z" transform="translate(-13.207 -63.448)"/><path class="a" d="M50.569,45.75a21.838,21.838,0,0,1,1.713,7.959h-.359a21.489,21.489,0,0,0-1.663-7.765l.3-.194Zm1.72,8.318v.208a21.863,21.863,0,0,1-1.72,8.53l-.3-.194a21.511,21.511,0,0,0,1.67-8.29l.359-.255ZM8.427,54.28a21.859,21.859,0,0,0,1.72,8.53l.3-.194a21.511,21.511,0,0,1-1.67-8.293l-.359-.255v.208Zm.359-.567a21.489,21.489,0,0,1,1.663-7.765l-.3-.194a21.841,21.841,0,0,0-1.713,7.956h.359ZM47.8,61.022a18.648,18.648,0,0,0,1.254-6.684l-.359-.255v.2a18.318,18.318,0,0,1-1.2,6.548l.3.194Zm1.246-7.313A18.63,18.63,0,0,0,47.8,47.535l-.3.194a18.275,18.275,0,0,1,1.2,5.98h.359Zm-37.383.629a18.648,18.648,0,0,0,1.254,6.684l.3-.194a18.318,18.318,0,0,1-1.2-6.548q0-.1,0-.2l-.359.255Zm.359-.629a18.275,18.275,0,0,1,1.2-5.98l-.3-.194a18.627,18.627,0,0,0-1.246,6.174h.359Zm37.164,8.207a20.214,20.214,0,0,0,1.437-6.433l-.151-.108-.18.162a19.862,19.862,0,0,1-1.4,6.2l.3.194Zm1.394-9.593a20.2,20.2,0,0,0-1.394-5.682l-.3.194a19.851,19.851,0,0,1,1.376,5.9l.057-.183.165-.517.093.284ZM10.065,55.487l.151-.108.208.158a19.862,19.862,0,0,0,1.4,6.2l-.3.194A20.214,20.214,0,0,1,10.083,55.5Zm.359-2.748-.057-.183-.169-.517-.093.284a20.193,20.193,0,0,1,1.39-5.679l.3.194a19.851,19.851,0,0,0-1.34,5.9Z" transform="translate(-5.455 -29.382)"/><path class="a" d="M50.6,64.85l.413,1.279h1.343l-1.078.787.417,1.279L50.62,67.4l-1.078.794.417-1.279-1.078-.787h1.343l.413-1.279Zm-40.256,0,.413,1.279H12.1l-1.078.787.417,1.279L10.364,67.4l-1.078.794.392-1.279L8.6,66.129H9.943Z" transform="translate(-5.57 -41.622)"/><path class="a" d="M24.9-.1A25,25,0,1,1,7.229,7.223,25,25,0,0,1,24.9-.1Zm17.24,7.762a24.377,24.377,0,1,0,7.14,17.24,24.377,24.377,0,0,0-7.14-17.24Z" transform="translate(0 0)"/><path class="a" d="M51.817,29.421l-.442,1.634-.187.69A13.814,13.814,0,0,1,36.1,54.014c2.816-1.049,9.432-3.929,12.7-7.352,1.925-2.026,2.363-4.2,1.078-5.578-1.491-1.605-4.526-1.552-6.609-1.225A11.892,11.892,0,0,0,38.689,41.5c6.605-1.588,10.915,1.207,2.248,5.718a63.084,63.084,0,0,1-9.4,3.9,13.814,13.814,0,0,1,15.653-22.4c.919-.341,1.828-.654,2.608-.894a15.926,15.926,0,1,0,2.022,1.591Z" transform="translate(-16.12 -16.196)"/><path class="a" d="M58.052,36.94l-.718,2.708-.56,2.076A55.417,55.417,0,0,0,46.03,46.156c-7.388,4.181-3.52,6.447,3.674,5.118-3.531,1.925-9.382,2.579-11.422.65-1.526-1.447-1.39-4.138,2.823-7.061a62.159,62.159,0,0,1,7.09-4.041c-1.171.233-5.028.18-5.865-.521a17.829,17.829,0,0,0,7.183-1.613l1.386.851A70.5,70.5,0,0,1,58.052,36.94Z" transform="translate(-24.022 -23.736)"/></g></svg>